<svg width="200" height="18" viewBox="0 0 200 18" fill="none" xmlns="http://www.w3.org/2000/svg">
<path fill-rule="evenodd" clip-rule="evenodd" d="M130.644 16.6883V2.25911C130.644 2.04049 130.644 0.947369 130.715 0L125.619 1.67611V1.74899L126.327 2.62348C126.539 2.91498 126.539 3.13361 126.539 3.57085V16.6883C126.539 17.0526 126.469 17.1255 125.902 17.2713L125.549 17.3441V17.5628H131.776V17.3441L131.423 17.2713C130.786 17.1255 130.644 17.0526 130.644 16.6883ZM137.58 2.25911V16.6883C137.58 17.0526 137.65 17.1255 138.287 17.2713L138.641 17.3441V17.5628H132.413V17.3441L132.767 17.2713C133.333 17.1255 133.404 17.0526 133.404 16.6883V3.57085C133.404 3.13361 133.404 2.91498 133.192 2.62348L132.484 1.74899V1.67611L137.58 0H137.65C137.58 0.947369 137.58 2.04049 137.58 2.25911ZM176.575 2.40485C176.575 3.57085 175.584 4.59109 174.239 4.59109C173.036 4.59109 171.975 3.64372 171.975 2.47773C171.975 1.38461 173.036 0.29149 174.452 0.29149C175.655 0.29149 176.575 1.23886 176.575 2.40485ZM176.362 16.6883V7.72472C176.362 7.5061 176.362 6.41298 176.433 5.46561L176.362 5.39274L171.267 7.14173V7.2146L171.975 8.0891C172.187 8.38059 172.187 8.59922 172.187 9.03647V16.7612C172.187 17.1255 172.116 17.1984 171.55 17.3442L171.196 17.417V17.6357H177.424V17.417L177.07 17.3442C176.362 17.1255 176.362 17.0527 176.362 16.6883ZM199.929 14.0648C199.222 14.7207 198.302 15.2308 197.028 15.2308C194.551 15.2308 193.135 13.4818 193.135 10.2024H199.788C199.858 10.0567 199.858 9.83806 199.858 9.40081C199.858 7.28745 198.231 5.53846 195.188 5.53846C192.003 5.53846 189.314 8.23482 189.314 12.0972C189.314 15.3036 191.366 17.9271 194.621 17.9271C197.24 17.9271 198.938 16.3968 200 14.1377L199.929 14.0648ZM194.197 6.41297C194.409 6.19434 194.692 6.0486 194.975 6.0486C195.966 6.0486 196.461 7.79759 196.461 9.54658C196.178 9.61945 195.258 9.7652 193.135 9.83807C193.206 8.59921 193.489 7.21459 194.197 6.41297ZM190.658 6.0486V6.12148L190.021 6.55872L190.002 6.57452C189.378 7.07349 189.096 7.29958 188.606 8.45346L184.713 17.7085H183.652L179.264 7.50609C178.91 6.6316 178.769 6.55872 178.132 6.41297L177.707 6.26723V6.0486H184.926V6.26723L184.289 6.41297C183.723 6.55872 183.581 6.6316 183.581 6.85022C183.581 6.9231 183.581 7.28747 183.723 7.57897L185.846 13.4818H185.917L186.837 10.8583C187.19 9.76521 187.757 7.87047 187.757 7.43322C187.757 7.14172 187.403 6.77735 186.837 6.48585L186.27 6.12148V6.0486H190.658ZM168.931 15.5223C168.436 15.5223 167.941 15.4494 167.658 15.1579C167.374 14.8664 167.233 14.4291 167.233 13.7733V7.9433H170.418L170.701 6.04856H167.233L167.304 2.98783H167.233C165.817 4.29958 163.765 6.04856 161.642 7.65181V7.9433H163.057V14.4291C163.057 15.668 163.27 16.4696 163.907 17.1255C164.473 17.7085 165.322 18 166.525 18C168.719 18 170.135 16.6883 170.984 15.0121L170.913 14.9393C170.276 15.3036 169.568 15.5223 168.931 15.5223ZM156.759 6.48584C156.617 6.19434 156.546 6.12146 156.334 6.12146C155.556 6.12146 154.494 7.65183 154.565 10.4211C154.565 13.4818 156.122 15.5952 158.528 15.5952C159.59 15.5952 160.368 15.2308 161.005 14.5749L161.076 14.6478C160.085 16.7612 158.386 17.9271 156.193 17.9271C152.796 17.9271 150.814 15.2308 150.814 12.0972C150.814 8.67207 153.22 5.61134 157.113 5.61134C159.448 5.61134 161.147 6.63159 161.147 8.16195C161.147 9.40082 160.085 10.1296 159.236 10.1296C158.882 10.1296 158.67 10.0567 158.316 9.40082L156.759 6.48584ZM146.709 15.2308C147.983 15.2308 148.903 14.7207 149.611 14.0648L149.682 14.1377C148.62 16.3968 146.921 17.9271 144.303 17.9271C141.047 17.9271 138.995 15.3036 138.995 12.0972C138.995 8.23482 141.684 5.53846 144.869 5.53846C147.912 5.53846 149.54 7.28745 149.54 9.40081C149.54 9.83806 149.54 10.0567 149.469 10.2024H142.817C142.817 13.4818 144.232 15.2308 146.709 15.2308ZM144.657 6.0486C144.374 6.0486 144.091 6.19434 143.878 6.41297C143.171 7.21459 142.888 8.59921 142.817 9.83807C144.94 9.7652 145.86 9.61945 146.143 9.54658C146.143 7.79759 145.648 6.0486 144.657 6.0486ZM119.25 5.61134C117.339 5.61134 115.853 6.26721 114.65 7.50608C113.73 8.45345 112.951 10.0567 112.951 11.8786C112.951 15.0122 115.145 17.9271 118.967 17.9271C120.878 17.9271 122.364 17.2713 123.567 16.0324C124.487 15.085 125.265 13.4818 125.265 11.6599C125.265 8.5992 123.072 5.61134 119.25 5.61134ZM120.311 16.6883C120.17 17.0527 119.887 17.4899 119.321 17.4899C118.047 17.4899 117.339 14.5021 117.339 11.3685C117.339 9.83811 117.41 8.01624 117.976 6.92313C118.118 6.55875 118.401 6.12151 118.967 6.12151C120.241 6.12151 120.948 9.10936 120.948 12.243C120.948 13.7733 120.807 15.5952 120.311 16.6883ZM108.139 16.1053C107.219 17.0526 106.44 17.4899 105.591 17.4899C103.043 17.4899 101.415 13.7004 101.415 8.89068C101.415 3.42509 103.255 1.02023 105.379 1.02023C106.299 1.02023 106.936 1.31173 107.856 2.25909C108.846 3.27934 109.766 4.8097 110.97 6.99594H111.182C111.111 5.31983 110.899 2.33197 110.757 0.655854H110.616L110.403 0.947353C110.262 1.16598 110.191 1.23885 109.979 1.23885C109.837 1.23885 109.491 1.16598 109.03 1.06881C108.107 0.874478 106.723 0.58298 105.591 0.58298C99.7877 0.58298 96.603 4.51821 96.603 9.47368C96.603 14.9393 100.212 18 105.379 18C106.723 18 108.917 17.5628 111.04 16.5425C111.182 16.251 111.677 12.6802 111.748 10.9312L111.607 10.8583C110.262 13.336 109.13 15.085 108.139 16.1053ZM92.2859 14.0648C91.5782 14.7207 90.6582 15.2308 89.3843 15.2308C86.9073 15.2308 85.4919 13.4818 85.4919 10.2024H92.1444C92.2151 10.0567 92.2151 9.83806 92.2151 9.40081C92.2151 7.28745 90.5874 5.53846 87.5442 5.53846C84.3595 5.53846 81.6702 8.23482 81.6702 12.0972C81.6702 15.3036 83.7226 17.9271 86.9781 17.9271C89.5966 17.9271 91.2951 16.3968 92.3567 14.1377L92.2859 14.0648ZM86.5534 6.41297C86.7657 6.19434 87.0488 6.0486 87.3319 6.0486C88.3227 6.0486 88.8181 7.79759 88.8181 9.54658C88.535 9.61945 87.615 9.7652 85.4919 9.83807C85.5626 8.59921 85.8457 7.21459 86.5534 6.41297ZM77.9902 9.10932C78.4856 9.10932 79.4764 9.40082 80.5379 9.98381C81.1749 9.25507 81.5995 8.3077 81.5995 7.21458C81.5995 6.26721 81.1041 5.46559 80.0425 5.46559C78.7687 5.46559 77.424 6.99596 76.7871 9.40082L76.6455 9.32794L76.7163 7.28745C76.7163 7.02875 76.7411 6.74454 76.776 6.34425L76.776 6.34392C76.8001 6.06772 76.8289 5.73628 76.8578 5.31984L76.7871 5.24697L71.6208 6.99596V7.06883L72.3285 7.94333C72.5408 8.16195 72.5408 8.45345 72.5408 8.8907V16.6154C72.5408 16.9798 72.47 17.0526 71.9038 17.1984L71.55 17.2713V17.4899H78.2733V17.2713L77.4948 17.1984C76.8578 17.1255 76.7871 17.0526 76.7871 16.6154V10.2024C76.9994 9.61944 77.3532 9.10932 77.9902 9.10932ZM70.0638 7.72468V16.6883C70.0638 17.0526 70.1345 17.1255 70.7715 17.3441L71.1253 17.417V17.6356H64.8974V17.417L65.2513 17.3441C65.8175 17.1984 65.8882 17.1255 65.8882 16.7611V9.03642C65.8882 8.59918 65.8882 8.38055 65.6759 8.08906L64.9682 7.21456V7.14169L70.0638 5.46557H70.1345C70.0638 6.41294 70.0638 7.50606 70.0638 7.72468ZM67.9406 4.59109C69.2852 4.59109 70.276 3.57085 70.276 2.40485C70.276 1.23886 69.356 0.29149 68.1529 0.29149C66.7374 0.29149 65.6759 1.38461 65.6759 2.47773C65.6759 3.64372 66.7374 4.59109 67.9406 4.59109ZM64.7559 16.0324C64.402 16.251 64.1897 16.3239 63.9774 16.3239C63.7651 16.3239 63.5528 16.251 63.3404 16.1053C63.1281 15.8866 62.9866 15.5951 62.9866 14.7935V9.10931C62.9866 7.94332 62.845 7.06882 62.2081 6.41295C61.6419 5.82996 60.7219 5.53846 59.5188 5.53846C57.5372 5.53846 55.2725 7.06882 54.1402 8.23482C53.5032 8.89069 53.2201 9.40081 53.2201 9.83806C53.2201 10.4211 53.6448 10.7854 54.6356 10.7854C55.414 10.7854 56.5464 10.4939 57.0418 10.2024L56.3341 7.65182C56.6172 7.36032 56.9002 7.28745 57.3249 7.28745C57.7495 7.28745 58.1741 7.36032 58.3864 7.65182C58.7403 7.94332 58.8818 8.74494 58.8818 10.3482V11.587L56.9002 12.2429C54.8479 12.9717 54.1402 13.2632 53.6448 13.8462C53.2909 14.2105 53.0786 14.7207 53.0786 15.2308C53.0786 16.5425 53.9986 17.7814 55.6264 17.7814C56.7587 17.7814 57.4664 17.3441 58.528 16.3968L58.8818 16.1053H58.9526C59.3772 17.1984 60.2973 17.8543 61.5712 17.8543C63.1989 17.8543 64.402 16.6883 64.8266 16.0324H64.7559ZM58.9526 15.8866C58.7403 16.0324 58.5987 16.1053 58.2449 16.1053C57.6079 16.1053 57.0418 15.4494 57.0418 14.2834C57.0418 13.6275 57.1833 13.1903 57.5372 12.8259C57.8362 12.518 58.0847 12.3662 58.5818 12.0626C58.6728 12.007 58.7722 11.9462 58.8818 11.8785V15.8866H58.9526ZM51.4508 16.6883V7.72472C51.4508 7.5061 51.4508 6.41298 51.5216 5.46561L51.4508 5.39274L46.3553 7.06885V7.14173L47.063 8.01622C47.2753 8.30772 47.2753 8.52634 47.2753 8.96359V16.6883C47.2753 17.0527 47.2045 17.1255 46.6384 17.2713L46.2845 17.3442V17.5628H52.5831V17.3442L52.2293 17.2713C51.4508 17.1255 51.4508 17.0527 51.4508 16.6883ZM51.6632 2.40485C51.6632 3.57085 50.6724 4.59109 49.3277 4.59109C48.1246 4.59109 47.063 3.64372 47.063 2.47773C47.063 1.38461 48.1246 0.29149 49.54 0.29149C50.7431 0.29149 51.6632 1.23886 51.6632 2.40485ZM44.0198 15.5223C43.5244 15.5223 43.029 15.4494 42.7459 15.1579C42.4629 14.8664 42.3213 14.4292 42.3213 13.7733V7.94334H45.506L45.7891 6.04861H42.3213L42.4629 2.915H42.3921C40.9767 4.22674 38.9243 5.97573 36.8011 7.57897V7.87047H38.2166V14.3563C38.2166 15.5952 38.4289 16.3968 39.0658 17.0527C39.632 17.6357 40.4813 17.9272 41.6844 17.9272C43.8783 17.9272 45.2937 16.6154 46.143 14.9393L46.0722 14.8664C45.3645 15.3037 44.6568 15.5223 44.0198 15.5223ZM30.5733 7.43321C30.5733 8.38058 31.281 8.96357 32.4133 9.61944C34.5365 10.7854 36.3057 11.8786 36.3057 13.919C36.3057 16.3968 34.3241 17.8543 31.4225 17.8543C30.0779 17.8543 28.5917 17.5628 27.5301 17.1255C27.3885 16.1782 27.1762 14.2834 27.1762 13.1174L27.3178 13.0445C29.5825 16.1053 30.7856 17.3441 31.9179 17.3441C32.7672 17.3441 33.1918 16.7611 33.1918 16.0324C33.1918 15.085 32.4133 14.4292 30.9271 13.4818C30.8077 13.408 30.6886 13.3352 30.5703 13.2629C28.9363 12.2643 27.4593 11.3617 27.4593 9.25507C27.4593 7.21458 29.2994 5.61134 31.9887 5.61134C33.5457 5.61134 34.8195 6.04859 35.598 6.34009C35.6688 6.85021 35.7396 8.96357 35.7396 9.69232L35.598 9.76519C33.4041 6.63159 32.6964 6.19434 31.8471 6.19434C30.9979 6.19434 30.5733 6.77734 30.5733 7.43321ZM23.0715 15.2308C24.3454 15.2308 25.2654 14.7207 25.9731 14.0648L26.0439 14.1377C24.9823 16.3968 23.2838 17.9271 20.6652 17.9271C17.4098 17.9271 15.3574 15.3036 15.3574 12.0972C15.3574 8.23482 18.0467 5.53846 21.2314 5.53846C24.2746 5.53846 25.9023 7.28745 25.9023 9.40081C25.9023 9.83806 25.9023 10.0567 25.8316 10.2024H19.179C19.179 13.4818 20.5945 15.2308 23.0715 15.2308ZM21.0191 6.0486C20.736 6.0486 20.4529 6.19434 20.2406 6.41297C19.5329 7.21459 19.2498 8.59921 19.179 9.83807C21.3022 9.7652 22.2222 9.61945 22.5053 9.54658C22.5053 7.79759 22.0099 6.0486 21.0191 6.0486ZM18.1175 1.0931L17.2683 1.45748C15.9944 2.11335 15.7113 2.62347 14.4374 5.61133L9.55417 17.9271H8.28029L3.39706 5.61133C1.91086 1.82185 1.69854 1.53035 0.283116 1.23885L3.05176e-05 1.16598V0.947354H9.12954V1.23885L8.28029 1.3846C7.43103 1.53035 7.28949 1.82185 7.28949 2.11335C7.28949 2.33197 7.36026 2.76922 7.57257 3.42509L10.9696 12.9717L13.0927 6.19432C13.1083 6.1382 13.1307 6.05915 13.1583 5.96192C13.3814 5.17535 13.942 3.19917 13.942 2.55059C13.942 2.11335 13.7297 1.9676 12.7389 1.53035L11.7481 1.0931V0.947354H18.1175V1.0931Z" fill="black"/>
</svg>
